<mxfile host="app.diagrams.net" modified="2022-10-15T05:06:18.075Z" agent="5.0 (Windows NT 10.0; Win64; x64) AppleWebKit/537.36 (KHTML, like Gecko) Chrome/106.0.0.0 Safari/537.36" etag="12A-GrUZ7aPL0Tw2wpUH" version="20.4.1" type="github">
  <diagram name="Page-1" id="e7e014a7-5840-1c2e-5031-d8a46d1fe8dd">
    <mxGraphModel dx="1354" dy="726" grid="1" gridSize="10" guides="1" tooltips="1" connect="1" arrows="1" fold="1" page="1" pageScale="1" pageWidth="1169" pageHeight="826" background="none" math="0" shadow="0">
      <root>
        <mxCell id="0" />
        <mxCell id="1" parent="0" />
        <mxCell id="2" value="Back officersÂ " style="swimlane;whiteSpace=wrap" parent="1" vertex="1">
          <mxGeometry x="134.5" y="128" width="310" height="2152" as="geometry" />
        </mxCell>
        <mxCell id="rlBSqn4vm4IBlQh9q27B-58" style="edgeStyle=orthogonalEdgeStyle;rounded=0;orthogonalLoop=1;jettySize=auto;html=1;exitX=0.5;exitY=1;exitDx=0;exitDy=0;entryX=0.5;entryY=0;entryDx=0;entryDy=0;" parent="2" source="5" target="7" edge="1">
          <mxGeometry relative="1" as="geometry" />
        </mxCell>
        <mxCell id="5" value="" style="ellipse;shape=startState;fillColor=#000000;strokeColor=#ff0000;" parent="2" vertex="1">
          <mxGeometry x="140" y="40" width="30" height="30" as="geometry" />
        </mxCell>
        <mxCell id="rlBSqn4vm4IBlQh9q27B-235" style="edgeStyle=orthogonalEdgeStyle;rounded=0;orthogonalLoop=1;jettySize=auto;html=1;exitX=0.5;exitY=1;exitDx=0;exitDy=0;" parent="2" source="7" target="rlBSqn4vm4IBlQh9q27B-234" edge="1">
          <mxGeometry relative="1" as="geometry" />
        </mxCell>
        <mxCell id="7" value="View Manage Page" style="fontStyle=0;rounded=1;" parent="2" vertex="1">
          <mxGeometry x="100" y="110" width="110" height="50" as="geometry" />
        </mxCell>
        <mxCell id="rlBSqn4vm4IBlQh9q27B-78" style="edgeStyle=orthogonalEdgeStyle;rounded=0;orthogonalLoop=1;jettySize=auto;html=1;exitX=0.5;exitY=1;exitDx=0;exitDy=0;entryX=0.5;entryY=0;entryDx=0;entryDy=0;" parent="2" source="rlBSqn4vm4IBlQh9q27B-71" target="rlBSqn4vm4IBlQh9q27B-77" edge="1">
          <mxGeometry relative="1" as="geometry" />
        </mxCell>
        <mxCell id="rlBSqn4vm4IBlQh9q27B-71" value="Choose&#xa;Action" style="rounded=1;" parent="2" vertex="1">
          <mxGeometry x="100" y="367" width="110" height="50" as="geometry" />
        </mxCell>
        <mxCell id="rlBSqn4vm4IBlQh9q27B-77" value="" style="rhombus;" parent="2" vertex="1">
          <mxGeometry x="127.5" y="456" width="55" height="40" as="geometry" />
        </mxCell>
        <mxCell id="rlBSqn4vm4IBlQh9q27B-200" style="edgeStyle=orthogonalEdgeStyle;rounded=0;orthogonalLoop=1;jettySize=auto;html=1;exitX=0.5;exitY=1;exitDx=0;exitDy=0;entryX=0.5;entryY=0;entryDx=0;entryDy=0;" parent="2" source="rlBSqn4vm4IBlQh9q27B-83" target="rlBSqn4vm4IBlQh9q27B-196" edge="1">
          <mxGeometry relative="1" as="geometry" />
        </mxCell>
        <mxCell id="rlBSqn4vm4IBlQh9q27B-83" value="Choose Route, &#xa;Definite Time" style="rounded=1;" parent="2" vertex="1">
          <mxGeometry x="100" y="632" width="110" height="50" as="geometry" />
        </mxCell>
        <mxCell id="rlBSqn4vm4IBlQh9q27B-163" value="Assign Areas" style="text;html=1;align=center;verticalAlign=middle;resizable=0;points=[];autosize=1;strokeColor=none;fillColor=none;" parent="2" vertex="1">
          <mxGeometry x="37.5" y="447" width="90" height="30" as="geometry" />
        </mxCell>
        <mxCell id="rlBSqn4vm4IBlQh9q27B-166" style="edgeStyle=orthogonalEdgeStyle;rounded=0;orthogonalLoop=1;jettySize=auto;html=1;exitX=0.5;exitY=1;exitDx=0;exitDy=0;entryX=0.5;entryY=0;entryDx=0;entryDy=0;" parent="2" source="rlBSqn4vm4IBlQh9q27B-165" target="rlBSqn4vm4IBlQh9q27B-83" edge="1">
          <mxGeometry relative="1" as="geometry" />
        </mxCell>
        <mxCell id="rlBSqn4vm4IBlQh9q27B-165" value="" style="rhombus;" parent="2" vertex="1">
          <mxGeometry x="127.5" y="532" width="55" height="38" as="geometry" />
        </mxCell>
        <mxCell id="rlBSqn4vm4IBlQh9q27B-194" style="edgeStyle=orthogonalEdgeStyle;rounded=0;orthogonalLoop=1;jettySize=auto;html=1;exitX=0.5;exitY=1;exitDx=0;exitDy=0;entryX=0.5;entryY=0;entryDx=0;entryDy=0;" parent="2" source="rlBSqn4vm4IBlQh9q27B-180" target="rlBSqn4vm4IBlQh9q27B-193" edge="1">
          <mxGeometry relative="1" as="geometry" />
        </mxCell>
        <mxCell id="rlBSqn4vm4IBlQh9q27B-180" value="Tick Checkbox,&#xa;Definite Time" style="rounded=1;" parent="2" vertex="1">
          <mxGeometry x="100" y="1111" width="110" height="50" as="geometry" />
        </mxCell>
        <mxCell id="rlBSqn4vm4IBlQh9q27B-192" style="edgeStyle=orthogonalEdgeStyle;rounded=0;orthogonalLoop=1;jettySize=auto;html=1;exitX=0.5;exitY=1;exitDx=0;exitDy=0;entryX=0.5;entryY=0;entryDx=0;entryDy=0;" parent="2" source="rlBSqn4vm4IBlQh9q27B-188" target="rlBSqn4vm4IBlQh9q27B-180" edge="1">
          <mxGeometry relative="1" as="geometry" />
        </mxCell>
        <mxCell id="rlBSqn4vm4IBlQh9q27B-188" value="" style="rhombus;" parent="2" vertex="1">
          <mxGeometry x="127.5" y="1022" width="55" height="38" as="geometry" />
        </mxCell>
        <mxCell id="rlBSqn4vm4IBlQh9q27B-82" value="Create Route" style="text;html=1;align=center;verticalAlign=middle;resizable=0;points=[];autosize=1;strokeColor=none;fillColor=none;" parent="2" vertex="1">
          <mxGeometry x="182.5" y="447" width="90" height="30" as="geometry" />
        </mxCell>
        <mxCell id="rlBSqn4vm4IBlQh9q27B-193" value="Confirm" style="rounded=1;" parent="2" vertex="1">
          <mxGeometry x="100" y="1192" width="110" height="50" as="geometry" />
        </mxCell>
        <mxCell id="rlBSqn4vm4IBlQh9q27B-196" value="Confirm" style="rounded=1;" parent="2" vertex="1">
          <mxGeometry x="100" y="740" width="110" height="50" as="geometry" />
        </mxCell>
        <mxCell id="rlBSqn4vm4IBlQh9q27B-227" value="" style="rhombus;" parent="2" vertex="1">
          <mxGeometry x="127.5" y="292" width="55" height="40" as="geometry" />
        </mxCell>
        <mxCell id="rlBSqn4vm4IBlQh9q27B-236" style="edgeStyle=orthogonalEdgeStyle;rounded=0;orthogonalLoop=1;jettySize=auto;html=1;exitX=0.5;exitY=1;exitDx=0;exitDy=0;entryX=0.5;entryY=0;entryDx=0;entryDy=0;" parent="2" source="rlBSqn4vm4IBlQh9q27B-234" target="rlBSqn4vm4IBlQh9q27B-227" edge="1">
          <mxGeometry relative="1" as="geometry" />
        </mxCell>
        <mxCell id="rlBSqn4vm4IBlQh9q27B-234" value="Choose Manage" style="fontStyle=0;rounded=1;strokeColor=#000000;fillColor=#FFFFFF;" parent="2" vertex="1">
          <mxGeometry x="100" y="202" width="110" height="50" as="geometry" />
        </mxCell>
        <mxCell id="rlBSqn4vm4IBlQh9q27B-230" value="Manage &lt;br&gt;Collectors, Janitors" style="text;html=1;align=center;verticalAlign=middle;resizable=0;points=[];autosize=1;strokeColor=none;fillColor=none;" parent="2" vertex="1">
          <mxGeometry x="170" y="272" width="130" height="40" as="geometry" />
        </mxCell>
        <mxCell id="rlBSqn4vm4IBlQh9q27B-249" value="&amp;nbsp;Manage&amp;nbsp;&lt;br style=&quot;padding: 0px; margin: 0px;&quot;&gt;Vehicles&amp;nbsp;" style="text;html=1;align=center;verticalAlign=middle;resizable=0;points=[];autosize=1;strokeColor=none;fillColor=none;" parent="2" vertex="1">
          <mxGeometry x="37.5" y="272" width="70" height="40" as="geometry" />
        </mxCell>
        <mxCell id="rlBSqn4vm4IBlQh9q27B-261" style="edgeStyle=orthogonalEdgeStyle;rounded=0;orthogonalLoop=1;jettySize=auto;html=1;exitX=0.5;exitY=1;exitDx=0;exitDy=0;entryX=0.5;entryY=0;entryDx=0;entryDy=0;" parent="2" source="rlBSqn4vm4IBlQh9q27B-259" target="rlBSqn4vm4IBlQh9q27B-262" edge="1">
          <mxGeometry relative="1" as="geometry">
            <mxPoint x="166.96153846153857" y="1893.0265734265736" as="targetPoint" />
          </mxGeometry>
        </mxCell>
        <mxCell id="rlBSqn4vm4IBlQh9q27B-259" value="" style="rhombus;" parent="2" vertex="1">
          <mxGeometry x="149" y="1747" width="55" height="38" as="geometry" />
        </mxCell>
        <mxCell id="rlBSqn4vm4IBlQh9q27B-262" value="Choose Vehicle, &#xa;Delivery Date" style="rounded=1;strokeColor=#000000;fillColor=#FFFFFF;" parent="2" vertex="1">
          <mxGeometry x="110.75" y="1838" width="131.5" height="48" as="geometry" />
        </mxCell>
        <mxCell id="rlBSqn4vm4IBlQh9q27B-45" value="" style="ellipse;shape=endState;fillColor=#000000;strokeColor=#ff0000" parent="2" vertex="1">
          <mxGeometry x="140" y="2112" width="30" height="30" as="geometry" />
        </mxCell>
        <mxCell id="rlBSqn4vm4IBlQh9q27B-294" style="edgeStyle=orthogonalEdgeStyle;rounded=0;orthogonalLoop=1;jettySize=auto;html=1;exitX=0.5;exitY=1;exitDx=0;exitDy=0;entryX=0.5;entryY=0;entryDx=0;entryDy=0;" parent="2" source="rlBSqn4vm4IBlQh9q27B-291" target="rlBSqn4vm4IBlQh9q27B-45" edge="1">
          <mxGeometry relative="1" as="geometry" />
        </mxCell>
        <mxCell id="rlBSqn4vm4IBlQh9q27B-291" value="" style="rhombus;" parent="2" vertex="1">
          <mxGeometry x="127.5" y="2032" width="55" height="38" as="geometry" />
        </mxCell>
        <mxCell id="XdoykPWAol43YMfYIbr1-36" value="Delivering Vehicles" style="rounded=1;" parent="2" vertex="1">
          <mxGeometry x="121.5" y="1587" width="110" height="50" as="geometry" />
        </mxCell>
        <mxCell id="nLFvgQ4g275rdtvkvqvI-38" value="Confirm" style="rounded=1;" parent="2" vertex="1">
          <mxGeometry x="121.5" y="1912" width="110" height="50" as="geometry" />
        </mxCell>
        <mxCell id="nLFvgQ4g275rdtvkvqvI-39" value="" style="endArrow=classic;html=1;exitX=0.5;exitY=1;exitDx=0;exitDy=0;entryX=0.5;entryY=0;entryDx=0;entryDy=0;" parent="2" source="rlBSqn4vm4IBlQh9q27B-262" target="nLFvgQ4g275rdtvkvqvI-38" edge="1">
          <mxGeometry width="50" height="50" relative="1" as="geometry">
            <mxPoint x="565.5" y="1832" as="sourcePoint" />
            <mxPoint x="615.5" y="1782" as="targetPoint" />
          </mxGeometry>
        </mxCell>
        <mxCell id="3" value="Collectors and janitors" style="swimlane;whiteSpace=wrap;startSize=23;" parent="1" vertex="1">
          <mxGeometry x="444.5" y="128" width="283.5" height="2152" as="geometry" />
        </mxCell>
        <mxCell id="rlBSqn4vm4IBlQh9q27B-186" value="Receive Task Notify" style="rounded=1;" parent="3" vertex="1">
          <mxGeometry x="55.5" y="1376" width="110" height="50" as="geometry" />
        </mxCell>
        <mxCell id="rlBSqn4vm4IBlQh9q27B-288" style="edgeStyle=orthogonalEdgeStyle;rounded=0;orthogonalLoop=1;jettySize=auto;html=1;exitX=0;exitY=0.5;exitDx=0;exitDy=0;entryX=1;entryY=0.5;entryDx=0;entryDy=0;" parent="3" source="rlBSqn4vm4IBlQh9q27B-285" target="rlBSqn4vm4IBlQh9q27B-186" edge="1">
          <mxGeometry relative="1" as="geometry" />
        </mxCell>
        <mxCell id="rlBSqn4vm4IBlQh9q27B-285" value="" style="rhombus;" parent="3" vertex="1">
          <mxGeometry x="195.5" y="1382" width="55" height="38" as="geometry" />
        </mxCell>
        <mxCell id="4" value="System UWC 2.0" style="swimlane;whiteSpace=wrap;startSize=23;" parent="1" vertex="1">
          <mxGeometry x="728" y="128" width="280" height="2152" as="geometry">
            <mxRectangle x="724.5" y="128" width="90" height="30" as="alternateBounds" />
          </mxGeometry>
        </mxCell>
        <mxCell id="rlBSqn4vm4IBlQh9q27B-53" style="edgeStyle=orthogonalEdgeStyle;rounded=0;orthogonalLoop=1;jettySize=auto;html=1;exitX=0.5;exitY=1;exitDx=0;exitDy=0;entryX=0.5;entryY=0;entryDx=0;entryDy=0;" parent="4" source="21" target="33" edge="1">
          <mxGeometry relative="1" as="geometry">
            <mxPoint x="162" y="202" as="targetPoint" />
          </mxGeometry>
        </mxCell>
        <mxCell id="21" value="" style="rhombus;" parent="4" vertex="1">
          <mxGeometry x="112.5" y="115" width="55" height="40" as="geometry" />
        </mxCell>
        <mxCell id="rlBSqn4vm4IBlQh9q27B-55" style="edgeStyle=orthogonalEdgeStyle;rounded=0;orthogonalLoop=1;jettySize=auto;html=1;exitX=0.5;exitY=1;exitDx=0;exitDy=0;entryX=0.5;entryY=0;entryDx=0;entryDy=0;" parent="4" source="33" target="rlBSqn4vm4IBlQh9q27B-52" edge="1">
          <mxGeometry relative="1" as="geometry">
            <mxPoint x="222" y="362" as="targetPoint" />
          </mxGeometry>
        </mxCell>
        <mxCell id="rlBSqn4vm4IBlQh9q27B-52" value="" style="rhombus;" parent="4" vertex="1">
          <mxGeometry x="112.5" y="372" width="55" height="40" as="geometry" />
        </mxCell>
        <mxCell id="rlBSqn4vm4IBlQh9q27B-79" value="Display &#xa;Route Location Map" style="rounded=1;" parent="4" vertex="1">
          <mxGeometry x="85" y="451" width="110" height="50" as="geometry" />
        </mxCell>
        <mxCell id="rlBSqn4vm4IBlQh9q27B-91" value="" style="rhombus;" parent="4" vertex="1">
          <mxGeometry x="100.5" y="842" width="55" height="40" as="geometry" />
        </mxCell>
        <mxCell id="rlBSqn4vm4IBlQh9q27B-111" style="edgeStyle=orthogonalEdgeStyle;rounded=0;orthogonalLoop=1;jettySize=auto;html=1;exitX=1;exitY=0.75;exitDx=0;exitDy=0;" parent="4" source="rlBSqn4vm4IBlQh9q27B-92" edge="1">
          <mxGeometry relative="1" as="geometry">
            <mxPoint x="52" y="710" as="targetPoint" />
          </mxGeometry>
        </mxCell>
        <mxCell id="rlBSqn4vm4IBlQh9q27B-115" style="edgeStyle=orthogonalEdgeStyle;rounded=0;orthogonalLoop=1;jettySize=auto;html=1;exitX=0;exitY=0.25;exitDx=0;exitDy=0;" parent="4" source="rlBSqn4vm4IBlQh9q27B-92" edge="1">
          <mxGeometry relative="1" as="geometry">
            <mxPoint x="50" y="650" as="targetPoint" />
          </mxGeometry>
        </mxCell>
        <mxCell id="rlBSqn4vm4IBlQh9q27B-92" value="" style="whiteSpace=wrap;strokeColor=#000000;fillColor=#000000;" parent="4" vertex="1">
          <mxGeometry x="22" y="620" width="5" height="120" as="geometry" />
        </mxCell>
        <mxCell id="rlBSqn4vm4IBlQh9q27B-133" style="edgeStyle=orthogonalEdgeStyle;rounded=0;orthogonalLoop=1;jettySize=auto;html=1;exitX=1;exitY=0.5;exitDx=0;exitDy=0;entryX=0;entryY=0.25;entryDx=0;entryDy=0;" parent="4" source="rlBSqn4vm4IBlQh9q27B-96" target="rlBSqn4vm4IBlQh9q27B-132" edge="1">
          <mxGeometry relative="1" as="geometry" />
        </mxCell>
        <mxCell id="rlBSqn4vm4IBlQh9q27B-96" value="Check Route" style="rounded=1;" parent="4" vertex="1">
          <mxGeometry x="49.5" y="632" width="118" height="38" as="geometry" />
        </mxCell>
        <mxCell id="rlBSqn4vm4IBlQh9q27B-139" style="edgeStyle=none;rounded=0;orthogonalLoop=1;jettySize=auto;html=1;exitX=1;exitY=0.5;exitDx=0;exitDy=0;" parent="4" source="rlBSqn4vm4IBlQh9q27B-97" edge="1">
          <mxGeometry relative="1" as="geometry">
            <mxPoint x="133" y="713" as="targetPoint" />
          </mxGeometry>
        </mxCell>
        <mxCell id="rlBSqn4vm4IBlQh9q27B-141" style="edgeStyle=none;rounded=0;orthogonalLoop=1;jettySize=auto;html=1;exitX=1;exitY=0.5;exitDx=0;exitDy=0;" parent="4" source="rlBSqn4vm4IBlQh9q27B-97" edge="1">
          <mxGeometry relative="1" as="geometry">
            <mxPoint x="123" y="713" as="targetPoint" />
          </mxGeometry>
        </mxCell>
        <mxCell id="rlBSqn4vm4IBlQh9q27B-143" style="edgeStyle=none;rounded=0;orthogonalLoop=1;jettySize=auto;html=1;exitX=1;exitY=0.5;exitDx=0;exitDy=0;" parent="4" source="rlBSqn4vm4IBlQh9q27B-97" edge="1">
          <mxGeometry relative="1" as="geometry">
            <mxPoint x="133" y="713" as="targetPoint" />
          </mxGeometry>
        </mxCell>
        <mxCell id="rlBSqn4vm4IBlQh9q27B-144" style="edgeStyle=none;rounded=0;orthogonalLoop=1;jettySize=auto;html=1;exitX=1;exitY=0.5;exitDx=0;exitDy=0;" parent="4" source="rlBSqn4vm4IBlQh9q27B-97" edge="1">
          <mxGeometry relative="1" as="geometry">
            <mxPoint x="203" y="713" as="targetPoint" />
          </mxGeometry>
        </mxCell>
        <mxCell id="rlBSqn4vm4IBlQh9q27B-97" value="Check Definite Time" style="rounded=1;" parent="4" vertex="1">
          <mxGeometry x="49.5" y="692" width="118" height="42" as="geometry" />
        </mxCell>
        <mxCell id="rlBSqn4vm4IBlQh9q27B-145" style="edgeStyle=orthogonalEdgeStyle;rounded=0;orthogonalLoop=1;jettySize=auto;html=1;exitX=1;exitY=0.5;exitDx=0;exitDy=0;entryX=0.5;entryY=0;entryDx=0;entryDy=0;" parent="4" source="rlBSqn4vm4IBlQh9q27B-132" target="rlBSqn4vm4IBlQh9q27B-91" edge="1">
          <mxGeometry relative="1" as="geometry">
            <Array as="points">
              <mxPoint x="242" y="680" />
              <mxPoint x="242" y="791" />
              <mxPoint x="128" y="791" />
            </Array>
          </mxGeometry>
        </mxCell>
        <mxCell id="rlBSqn4vm4IBlQh9q27B-132" value="" style="whiteSpace=wrap;strokeColor=#000000;fillColor=#000000;" parent="4" vertex="1">
          <mxGeometry x="200" y="620" width="5" height="120" as="geometry" />
        </mxCell>
        <mxCell id="rlBSqn4vm4IBlQh9q27B-172" value="Display Areas&#xa;Â Information List" style="rounded=1;" parent="4" vertex="1">
          <mxGeometry x="37" y="942" width="143" height="61" as="geometry" />
        </mxCell>
        <mxCell id="rlBSqn4vm4IBlQh9q27B-205" style="edgeStyle=orthogonalEdgeStyle;rounded=0;orthogonalLoop=1;jettySize=auto;html=1;exitX=1;exitY=0.5;exitDx=0;exitDy=0;entryX=0.5;entryY=0;entryDx=0;entryDy=0;" parent="4" source="rlBSqn4vm4IBlQh9q27B-201" target="rlBSqn4vm4IBlQh9q27B-203" edge="1">
          <mxGeometry relative="1" as="geometry">
            <Array as="points">
              <mxPoint x="242" y="1217" />
              <mxPoint x="242" y="1268" />
              <mxPoint x="128" y="1268" />
            </Array>
          </mxGeometry>
        </mxCell>
        <mxCell id="rlBSqn4vm4IBlQh9q27B-201" value="Verify Information" style="rounded=1;strokeColor=#000000;fillColor=#FFFFFF;" parent="4" vertex="1">
          <mxGeometry x="53.5" y="1192" width="110" height="50" as="geometry" />
        </mxCell>
        <mxCell id="rlBSqn4vm4IBlQh9q27B-203" value="" style="rhombus;" parent="4" vertex="1">
          <mxGeometry x="100.5" y="1294" width="55" height="38" as="geometry" />
        </mxCell>
        <mxCell id="rlBSqn4vm4IBlQh9q27B-207" value="Error" style="text;html=1;align=center;verticalAlign=middle;resizable=0;points=[];autosize=1;strokeColor=none;fillColor=none;" parent="4" vertex="1">
          <mxGeometry x="50.5" y="1282" width="50" height="30" as="geometry" />
        </mxCell>
        <mxCell id="rlBSqn4vm4IBlQh9q27B-211" value="Successful" style="text;html=1;align=center;verticalAlign=middle;resizable=0;points=[];autosize=1;strokeColor=none;fillColor=none;" parent="4" vertex="1">
          <mxGeometry x="147.5" y="1282" width="80" height="30" as="geometry" />
        </mxCell>
        <mxCell id="rlBSqn4vm4IBlQh9q27B-238" value="" style="rhombus;" parent="4" vertex="1">
          <mxGeometry x="112.5" y="1452" width="55" height="40" as="geometry" />
        </mxCell>
        <mxCell id="rlBSqn4vm4IBlQh9q27B-247" style="edgeStyle=orthogonalEdgeStyle;rounded=0;orthogonalLoop=1;jettySize=auto;html=1;exitX=0.5;exitY=1;exitDx=0;exitDy=0;entryX=0.5;entryY=0;entryDx=0;entryDy=0;" parent="4" source="rlBSqn4vm4IBlQh9q27B-231" target="rlBSqn4vm4IBlQh9q27B-245" edge="1">
          <mxGeometry relative="1" as="geometry">
            <mxPoint x="242" y="1562" as="targetPoint" />
          </mxGeometry>
        </mxCell>
        <mxCell id="rlBSqn4vm4IBlQh9q27B-245" value="" style="rhombus;" parent="4" vertex="1">
          <mxGeometry x="112.5" y="1592" width="55" height="40" as="geometry" />
        </mxCell>
        <mxCell id="rlBSqn4vm4IBlQh9q27B-255" value="Display Vehicles List" style="rounded=1;strokeColor=#000000;fillColor=#FFFFFF;" parent="4" vertex="1">
          <mxGeometry x="74.25" y="1742" width="131.5" height="48" as="geometry" />
        </mxCell>
        <mxCell id="rlBSqn4vm4IBlQh9q27B-263" style="edgeStyle=orthogonalEdgeStyle;rounded=0;orthogonalLoop=1;jettySize=auto;html=1;exitX=1;exitY=0.75;exitDx=0;exitDy=0;" parent="4" source="rlBSqn4vm4IBlQh9q27B-265" edge="1">
          <mxGeometry relative="1" as="geometry">
            <mxPoint x="57" y="1892" as="targetPoint" />
          </mxGeometry>
        </mxCell>
        <mxCell id="rlBSqn4vm4IBlQh9q27B-264" style="edgeStyle=orthogonalEdgeStyle;rounded=0;orthogonalLoop=1;jettySize=auto;html=1;exitX=0;exitY=0.25;exitDx=0;exitDy=0;" parent="4" source="rlBSqn4vm4IBlQh9q27B-265" edge="1">
          <mxGeometry relative="1" as="geometry">
            <mxPoint x="55" y="1832" as="targetPoint" />
          </mxGeometry>
        </mxCell>
        <mxCell id="rlBSqn4vm4IBlQh9q27B-265" value="" style="whiteSpace=wrap;strokeColor=#000000;fillColor=#000000;" parent="4" vertex="1">
          <mxGeometry x="27" y="1802" width="5" height="120" as="geometry" />
        </mxCell>
        <mxCell id="rlBSqn4vm4IBlQh9q27B-267" value="Check Vehicle" style="rounded=1;" parent="4" vertex="1">
          <mxGeometry x="54.5" y="1814" width="118" height="38" as="geometry" />
        </mxCell>
        <mxCell id="rlBSqn4vm4IBlQh9q27B-268" style="edgeStyle=none;rounded=0;orthogonalLoop=1;jettySize=auto;html=1;exitX=1;exitY=0.5;exitDx=0;exitDy=0;" parent="4" source="rlBSqn4vm4IBlQh9q27B-272" edge="1">
          <mxGeometry relative="1" as="geometry">
            <mxPoint x="138" y="1895" as="targetPoint" />
          </mxGeometry>
        </mxCell>
        <mxCell id="rlBSqn4vm4IBlQh9q27B-269" style="edgeStyle=none;rounded=0;orthogonalLoop=1;jettySize=auto;html=1;exitX=1;exitY=0.5;exitDx=0;exitDy=0;" parent="4" source="rlBSqn4vm4IBlQh9q27B-272" edge="1">
          <mxGeometry relative="1" as="geometry">
            <mxPoint x="128" y="1895" as="targetPoint" />
          </mxGeometry>
        </mxCell>
        <mxCell id="rlBSqn4vm4IBlQh9q27B-270" style="edgeStyle=none;rounded=0;orthogonalLoop=1;jettySize=auto;html=1;exitX=1;exitY=0.5;exitDx=0;exitDy=0;" parent="4" source="rlBSqn4vm4IBlQh9q27B-272" edge="1">
          <mxGeometry relative="1" as="geometry">
            <mxPoint x="138" y="1895" as="targetPoint" />
          </mxGeometry>
        </mxCell>
        <mxCell id="rlBSqn4vm4IBlQh9q27B-271" style="edgeStyle=none;rounded=0;orthogonalLoop=1;jettySize=auto;html=1;exitX=1;exitY=0.5;exitDx=0;exitDy=0;" parent="4" source="rlBSqn4vm4IBlQh9q27B-272" edge="1">
          <mxGeometry relative="1" as="geometry">
            <mxPoint x="208" y="1895" as="targetPoint" />
          </mxGeometry>
        </mxCell>
        <mxCell id="rlBSqn4vm4IBlQh9q27B-272" value="Check Delivery Date" style="rounded=1;" parent="4" vertex="1">
          <mxGeometry x="54.5" y="1874" width="118" height="42" as="geometry" />
        </mxCell>
        <mxCell id="XdoykPWAol43YMfYIbr1-44" style="edgeStyle=orthogonalEdgeStyle;rounded=0;orthogonalLoop=1;jettySize=auto;html=1;exitX=1;exitY=0.5;exitDx=0;exitDy=0;entryX=0.5;entryY=0;entryDx=0;entryDy=0;" parent="4" source="rlBSqn4vm4IBlQh9q27B-273" target="rlBSqn4vm4IBlQh9q27B-275" edge="1">
          <mxGeometry relative="1" as="geometry">
            <Array as="points">
              <mxPoint x="252" y="1862" />
              <mxPoint x="252" y="1942" />
              <mxPoint x="153" y="1942" />
            </Array>
          </mxGeometry>
        </mxCell>
        <mxCell id="rlBSqn4vm4IBlQh9q27B-273" value="" style="whiteSpace=wrap;strokeColor=#000000;fillColor=#000000;" parent="4" vertex="1">
          <mxGeometry x="205" y="1802" width="5" height="120" as="geometry" />
        </mxCell>
        <mxCell id="rlBSqn4vm4IBlQh9q27B-266" style="edgeStyle=orthogonalEdgeStyle;rounded=0;orthogonalLoop=1;jettySize=auto;html=1;exitX=1;exitY=0.5;exitDx=0;exitDy=0;entryX=0;entryY=0.25;entryDx=0;entryDy=0;" parent="4" source="rlBSqn4vm4IBlQh9q27B-267" target="rlBSqn4vm4IBlQh9q27B-273" edge="1">
          <mxGeometry relative="1" as="geometry" />
        </mxCell>
        <mxCell id="rlBSqn4vm4IBlQh9q27B-275" value="" style="rhombus;" parent="4" vertex="1">
          <mxGeometry x="125" y="1962" width="55" height="38" as="geometry" />
        </mxCell>
        <mxCell id="rlBSqn4vm4IBlQh9q27B-185" value="Successful" style="text;html=1;align=center;verticalAlign=middle;resizable=0;points=[];autosize=1;strokeColor=none;fillColor=none;" parent="4" vertex="1">
          <mxGeometry x="147.5" y="832" width="80" height="30" as="geometry" />
        </mxCell>
        <mxCell id="rlBSqn4vm4IBlQh9q27B-159" value="Error" style="text;html=1;align=center;verticalAlign=middle;resizable=0;points=[];autosize=1;strokeColor=none;fillColor=none;" parent="4" vertex="1">
          <mxGeometry x="62.5" y="832" width="50" height="30" as="geometry" />
        </mxCell>
        <mxCell id="rlBSqn4vm4IBlQh9q27B-302" value="Successful" style="text;html=1;align=center;verticalAlign=middle;resizable=0;points=[];autosize=1;strokeColor=none;fillColor=none;" parent="4" vertex="1">
          <mxGeometry x="167.5" y="1952" width="80" height="30" as="geometry" />
        </mxCell>
        <mxCell id="rlBSqn4vm4IBlQh9q27B-278" value="Error" style="text;html=1;align=center;verticalAlign=middle;resizable=0;points=[];autosize=1;strokeColor=none;fillColor=none;" parent="4" vertex="1">
          <mxGeometry x="75" y="1952" width="50" height="30" as="geometry" />
        </mxCell>
        <mxCell id="33" value="Display ManageÂ &#xa;Collectors, Janitors Interface" style="rounded=1;" parent="4" vertex="1">
          <mxGeometry x="52.5" y="202" width="175" height="48" as="geometry" />
        </mxCell>
        <mxCell id="rlBSqn4vm4IBlQh9q27B-56" value="Continue" style="text;html=1;align=center;verticalAlign=middle;resizable=0;points=[];autosize=1;strokeColor=none;fillColor=none;" parent="4" vertex="1">
          <mxGeometry x="40.5" y="362" width="70" height="30" as="geometry" />
        </mxCell>
        <mxCell id="rlBSqn4vm4IBlQh9q27B-296" value="Exit" style="text;html=1;align=center;verticalAlign=middle;resizable=0;points=[];autosize=1;strokeColor=none;fillColor=none;" parent="4" vertex="1">
          <mxGeometry x="140" y="402" width="40" height="30" as="geometry" />
        </mxCell>
        <mxCell id="rlBSqn4vm4IBlQh9q27B-231" value="Display ManageÂ &#xa;Vehicles Interface" style="rounded=1;" parent="4" vertex="1">
          <mxGeometry x="52.5" y="1512" width="175" height="48" as="geometry" />
        </mxCell>
        <mxCell id="nLFvgQ4g275rdtvkvqvI-37" value="" style="endArrow=classic;html=1;exitX=0.5;exitY=1;exitDx=0;exitDy=0;entryX=0.5;entryY=0;entryDx=0;entryDy=0;" parent="4" source="rlBSqn4vm4IBlQh9q27B-238" target="rlBSqn4vm4IBlQh9q27B-231" edge="1">
          <mxGeometry width="50" height="50" relative="1" as="geometry">
            <mxPoint x="-28" y="1462" as="sourcePoint" />
            <mxPoint x="22" y="1412" as="targetPoint" />
          </mxGeometry>
        </mxCell>
        <mxCell id="rlBSqn4vm4IBlQh9q27B-248" value="Continue" style="text;html=1;align=center;verticalAlign=middle;resizable=0;points=[];autosize=1;strokeColor=none;fillColor=none;" parent="4" vertex="1">
          <mxGeometry x="42.5" y="1582" width="70" height="30" as="geometry" />
        </mxCell>
        <mxCell id="rlBSqn4vm4IBlQh9q27B-293" value="Exit" style="text;html=1;align=center;verticalAlign=middle;resizable=0;points=[];autosize=1;strokeColor=none;fillColor=none;" parent="4" vertex="1">
          <mxGeometry x="140" y="1632" width="40" height="30" as="geometry" />
        </mxCell>
        <mxCell id="rlBSqn4vm4IBlQh9q27B-41" value="Database" style="swimlane;whiteSpace=wrap;startSize=23;" parent="1" vertex="1">
          <mxGeometry x="1008" y="128" width="280" height="2152" as="geometry">
            <mxRectangle x="724.5" y="128" width="90" height="30" as="alternateBounds" />
          </mxGeometry>
        </mxCell>
        <mxCell id="rlBSqn4vm4IBlQh9q27B-218" style="edgeStyle=orthogonalEdgeStyle;rounded=0;orthogonalLoop=1;jettySize=auto;html=1;exitX=1;exitY=0.5;exitDx=0;exitDy=0;entryX=0;entryY=0.5;entryDx=0;entryDy=0;" parent="rlBSqn4vm4IBlQh9q27B-41" source="rlBSqn4vm4IBlQh9q27B-184" target="rlBSqn4vm4IBlQh9q27B-215" edge="1">
          <mxGeometry relative="1" as="geometry" />
        </mxCell>
        <mxCell id="rlBSqn4vm4IBlQh9q27B-184" value="Update Database" style="rounded=1;" parent="rlBSqn4vm4IBlQh9q27B-41" vertex="1">
          <mxGeometry x="92" y="942" width="118" height="38" as="geometry" />
        </mxCell>
        <mxCell id="rlBSqn4vm4IBlQh9q27B-212" style="edgeStyle=orthogonalEdgeStyle;rounded=0;orthogonalLoop=1;jettySize=auto;html=1;exitX=1;exitY=0.5;exitDx=0;exitDy=0;entryX=0;entryY=0.5;entryDx=0;entryDy=0;" parent="rlBSqn4vm4IBlQh9q27B-41" source="rlBSqn4vm4IBlQh9q27B-208" target="rlBSqn4vm4IBlQh9q27B-184" edge="1">
          <mxGeometry relative="1" as="geometry" />
        </mxCell>
        <mxCell id="rlBSqn4vm4IBlQh9q27B-208" value="" style="rhombus;" parent="rlBSqn4vm4IBlQh9q27B-41" vertex="1">
          <mxGeometry x="12" y="940" width="55" height="40" as="geometry" />
        </mxCell>
        <mxCell id="rlBSqn4vm4IBlQh9q27B-215" value="" style="whiteSpace=wrap;strokeColor=#000000;fillColor=#000000;" parent="rlBSqn4vm4IBlQh9q27B-41" vertex="1">
          <mxGeometry x="242" y="901" width="5" height="120" as="geometry" />
        </mxCell>
        <mxCell id="rlBSqn4vm4IBlQh9q27B-282" style="edgeStyle=orthogonalEdgeStyle;rounded=0;orthogonalLoop=1;jettySize=auto;html=1;exitX=1;exitY=0.5;exitDx=0;exitDy=0;entryX=0;entryY=0.5;entryDx=0;entryDy=0;" parent="rlBSqn4vm4IBlQh9q27B-41" source="rlBSqn4vm4IBlQh9q27B-279" target="rlBSqn4vm4IBlQh9q27B-281" edge="1">
          <mxGeometry relative="1" as="geometry" />
        </mxCell>
        <mxCell id="rlBSqn4vm4IBlQh9q27B-279" value="Update Database" style="rounded=1;" parent="rlBSqn4vm4IBlQh9q27B-41" vertex="1">
          <mxGeometry x="81" y="1962" width="118" height="38" as="geometry" />
        </mxCell>
        <mxCell id="rlBSqn4vm4IBlQh9q27B-281" value="" style="whiteSpace=wrap;strokeColor=#000000;fillColor=#000000;" parent="rlBSqn4vm4IBlQh9q27B-41" vertex="1">
          <mxGeometry x="210" y="1921" width="5" height="120" as="geometry" />
        </mxCell>
        <mxCell id="rlBSqn4vm4IBlQh9q27B-72" style="edgeStyle=orthogonalEdgeStyle;rounded=0;orthogonalLoop=1;jettySize=auto;html=1;exitX=0;exitY=0.5;exitDx=0;exitDy=0;" parent="1" source="rlBSqn4vm4IBlQh9q27B-52" target="rlBSqn4vm4IBlQh9q27B-71" edge="1">
          <mxGeometry relative="1" as="geometry">
            <mxPoint x="750" y="540" as="sourcePoint" />
          </mxGeometry>
        </mxCell>
        <mxCell id="rlBSqn4vm4IBlQh9q27B-81" style="edgeStyle=orthogonalEdgeStyle;rounded=0;orthogonalLoop=1;jettySize=auto;html=1;exitX=1;exitY=0.5;exitDx=0;exitDy=0;entryX=0;entryY=0.5;entryDx=0;entryDy=0;" parent="1" source="rlBSqn4vm4IBlQh9q27B-77" target="rlBSqn4vm4IBlQh9q27B-79" edge="1">
          <mxGeometry relative="1" as="geometry">
            <mxPoint x="672.9999999999998" y="603.9999999999998" as="targetPoint" />
          </mxGeometry>
        </mxCell>
        <mxCell id="rlBSqn4vm4IBlQh9q27B-84" style="edgeStyle=orthogonalEdgeStyle;rounded=0;orthogonalLoop=1;jettySize=auto;html=1;exitX=0.5;exitY=1;exitDx=0;exitDy=0;entryX=1;entryY=0.5;entryDx=0;entryDy=0;" parent="1" source="rlBSqn4vm4IBlQh9q27B-79" target="rlBSqn4vm4IBlQh9q27B-165" edge="1">
          <mxGeometry relative="1" as="geometry" />
        </mxCell>
        <mxCell id="rlBSqn4vm4IBlQh9q27B-158" style="edgeStyle=orthogonalEdgeStyle;rounded=0;orthogonalLoop=1;jettySize=auto;html=1;exitX=0;exitY=0.5;exitDx=0;exitDy=0;entryX=0;entryY=0.5;entryDx=0;entryDy=0;" parent="1" source="rlBSqn4vm4IBlQh9q27B-91" target="rlBSqn4vm4IBlQh9q27B-165" edge="1">
          <mxGeometry relative="1" as="geometry">
            <mxPoint x="250" y="660" as="targetPoint" />
            <Array as="points">
              <mxPoint x="220" y="990" />
              <mxPoint x="220" y="679" />
            </Array>
          </mxGeometry>
        </mxCell>
        <mxCell id="rlBSqn4vm4IBlQh9q27B-161" style="edgeStyle=orthogonalEdgeStyle;rounded=0;orthogonalLoop=1;jettySize=auto;html=1;exitX=0;exitY=0.5;exitDx=0;exitDy=0;entryX=0;entryY=0.5;entryDx=0;entryDy=0;" parent="1" source="rlBSqn4vm4IBlQh9q27B-77" target="rlBSqn4vm4IBlQh9q27B-172" edge="1">
          <mxGeometry relative="1" as="geometry">
            <mxPoint x="760" y="1220" as="targetPoint" />
            <Array as="points">
              <mxPoint x="190" y="604" />
              <mxPoint x="190" y="1101" />
            </Array>
          </mxGeometry>
        </mxCell>
        <mxCell id="rlBSqn4vm4IBlQh9q27B-191" style="edgeStyle=orthogonalEdgeStyle;rounded=0;orthogonalLoop=1;jettySize=auto;html=1;exitX=1;exitY=0.5;exitDx=0;exitDy=0;entryX=1;entryY=0.5;entryDx=0;entryDy=0;" parent="1" source="rlBSqn4vm4IBlQh9q27B-172" target="rlBSqn4vm4IBlQh9q27B-188" edge="1">
          <mxGeometry relative="1" as="geometry">
            <mxPoint x="938" y="1210" as="sourcePoint" />
            <Array as="points">
              <mxPoint x="930" y="1100" />
              <mxPoint x="930" y="1169" />
            </Array>
          </mxGeometry>
        </mxCell>
        <mxCell id="rlBSqn4vm4IBlQh9q27B-198" style="edgeStyle=orthogonalEdgeStyle;rounded=0;orthogonalLoop=1;jettySize=auto;html=1;exitX=1;exitY=0.5;exitDx=0;exitDy=0;entryX=0;entryY=0.5;entryDx=0;entryDy=0;" parent="1" source="rlBSqn4vm4IBlQh9q27B-196" target="rlBSqn4vm4IBlQh9q27B-92" edge="1">
          <mxGeometry relative="1" as="geometry" />
        </mxCell>
        <mxCell id="rlBSqn4vm4IBlQh9q27B-202" style="edgeStyle=orthogonalEdgeStyle;rounded=0;orthogonalLoop=1;jettySize=auto;html=1;exitX=1;exitY=0.5;exitDx=0;exitDy=0;" parent="1" source="rlBSqn4vm4IBlQh9q27B-193" target="rlBSqn4vm4IBlQh9q27B-201" edge="1">
          <mxGeometry relative="1" as="geometry" />
        </mxCell>
        <mxCell id="rlBSqn4vm4IBlQh9q27B-206" style="edgeStyle=orthogonalEdgeStyle;rounded=0;orthogonalLoop=1;jettySize=auto;html=1;exitX=0;exitY=0.5;exitDx=0;exitDy=0;entryX=0;entryY=0.5;entryDx=0;entryDy=0;" parent="1" source="rlBSqn4vm4IBlQh9q27B-203" target="rlBSqn4vm4IBlQh9q27B-188" edge="1">
          <mxGeometry relative="1" as="geometry">
            <Array as="points">
              <mxPoint x="210" y="1440" />
              <mxPoint x="210" y="1170" />
              <mxPoint x="262" y="1170" />
            </Array>
          </mxGeometry>
        </mxCell>
        <mxCell id="rlBSqn4vm4IBlQh9q27B-209" style="edgeStyle=orthogonalEdgeStyle;rounded=0;orthogonalLoop=1;jettySize=auto;html=1;exitX=1;exitY=0.5;exitDx=0;exitDy=0;entryX=0.5;entryY=0;entryDx=0;entryDy=0;" parent="1" source="rlBSqn4vm4IBlQh9q27B-91" target="rlBSqn4vm4IBlQh9q27B-208" edge="1">
          <mxGeometry relative="1" as="geometry" />
        </mxCell>
        <mxCell id="rlBSqn4vm4IBlQh9q27B-210" style="edgeStyle=orthogonalEdgeStyle;rounded=0;orthogonalLoop=1;jettySize=auto;html=1;exitX=1;exitY=0.5;exitDx=0;exitDy=0;entryX=0.5;entryY=1;entryDx=0;entryDy=0;" parent="1" source="rlBSqn4vm4IBlQh9q27B-203" target="rlBSqn4vm4IBlQh9q27B-208" edge="1">
          <mxGeometry relative="1" as="geometry" />
        </mxCell>
        <mxCell id="rlBSqn4vm4IBlQh9q27B-219" style="edgeStyle=orthogonalEdgeStyle;rounded=0;orthogonalLoop=1;jettySize=auto;html=1;exitX=0;exitY=0.25;exitDx=0;exitDy=0;entryX=1;entryY=0.5;entryDx=0;entryDy=0;" parent="1" source="rlBSqn4vm4IBlQh9q27B-215" target="21" edge="1">
          <mxGeometry relative="1" as="geometry">
            <Array as="points">
              <mxPoint x="1270" y="1059" />
              <mxPoint x="1270" y="263" />
            </Array>
          </mxGeometry>
        </mxCell>
        <mxCell id="rlBSqn4vm4IBlQh9q27B-229" style="edgeStyle=orthogonalEdgeStyle;rounded=0;orthogonalLoop=1;jettySize=auto;html=1;exitX=1;exitY=0.5;exitDx=0;exitDy=0;entryX=0;entryY=0.5;entryDx=0;entryDy=0;" parent="1" source="rlBSqn4vm4IBlQh9q27B-227" target="21" edge="1">
          <mxGeometry relative="1" as="geometry">
            <Array as="points">
              <mxPoint x="480" y="440" />
              <mxPoint x="480" y="263" />
            </Array>
          </mxGeometry>
        </mxCell>
        <mxCell id="rlBSqn4vm4IBlQh9q27B-239" style="edgeStyle=orthogonalEdgeStyle;rounded=0;orthogonalLoop=1;jettySize=auto;html=1;exitX=0;exitY=0.5;exitDx=0;exitDy=0;entryX=0;entryY=0.5;entryDx=0;entryDy=0;" parent="1" source="rlBSqn4vm4IBlQh9q27B-227" target="rlBSqn4vm4IBlQh9q27B-238" edge="1">
          <mxGeometry relative="1" as="geometry">
            <Array as="points">
              <mxPoint x="170" y="440" />
              <mxPoint x="170" y="1600" />
            </Array>
          </mxGeometry>
        </mxCell>
        <mxCell id="rlBSqn4vm4IBlQh9q27B-258" style="edgeStyle=orthogonalEdgeStyle;rounded=0;orthogonalLoop=1;jettySize=auto;html=1;exitX=0;exitY=0.5;exitDx=0;exitDy=0;entryX=1;entryY=0.5;entryDx=0;entryDy=0;" parent="1" source="rlBSqn4vm4IBlQh9q27B-255" target="rlBSqn4vm4IBlQh9q27B-259" edge="1">
          <mxGeometry relative="1" as="geometry">
            <mxPoint x="395.5" y="1970" as="targetPoint" />
          </mxGeometry>
        </mxCell>
        <mxCell id="rlBSqn4vm4IBlQh9q27B-274" style="edgeStyle=orthogonalEdgeStyle;rounded=0;orthogonalLoop=1;jettySize=auto;html=1;exitX=1;exitY=0.5;exitDx=0;exitDy=0;entryX=0;entryY=0.5;entryDx=0;entryDy=0;" parent="1" source="nLFvgQ4g275rdtvkvqvI-38" target="rlBSqn4vm4IBlQh9q27B-265" edge="1">
          <mxGeometry relative="1" as="geometry" />
        </mxCell>
        <mxCell id="rlBSqn4vm4IBlQh9q27B-277" style="edgeStyle=orthogonalEdgeStyle;rounded=0;orthogonalLoop=1;jettySize=auto;html=1;exitX=0;exitY=0.5;exitDx=0;exitDy=0;entryX=0;entryY=0.5;entryDx=0;entryDy=0;" parent="1" source="rlBSqn4vm4IBlQh9q27B-275" target="rlBSqn4vm4IBlQh9q27B-259" edge="1">
          <mxGeometry relative="1" as="geometry">
            <Array as="points">
              <mxPoint x="220" y="2109" />
              <mxPoint x="220" y="1894" />
            </Array>
          </mxGeometry>
        </mxCell>
        <mxCell id="rlBSqn4vm4IBlQh9q27B-280" style="edgeStyle=orthogonalEdgeStyle;rounded=0;orthogonalLoop=1;jettySize=auto;html=1;exitX=1;exitY=0.5;exitDx=0;exitDy=0;entryX=0;entryY=0.5;entryDx=0;entryDy=0;" parent="1" source="rlBSqn4vm4IBlQh9q27B-275" target="rlBSqn4vm4IBlQh9q27B-279" edge="1">
          <mxGeometry relative="1" as="geometry">
            <mxPoint x="1047.5" y="2200" as="targetPoint" />
          </mxGeometry>
        </mxCell>
        <mxCell id="rlBSqn4vm4IBlQh9q27B-284" style="edgeStyle=orthogonalEdgeStyle;rounded=0;orthogonalLoop=1;jettySize=auto;html=1;exitX=1;exitY=0.25;exitDx=0;exitDy=0;entryX=1;entryY=0.5;entryDx=0;entryDy=0;" parent="1" source="rlBSqn4vm4IBlQh9q27B-281" target="rlBSqn4vm4IBlQh9q27B-238" edge="1">
          <mxGeometry relative="1" as="geometry" />
        </mxCell>
        <mxCell id="rlBSqn4vm4IBlQh9q27B-286" style="edgeStyle=orthogonalEdgeStyle;rounded=0;orthogonalLoop=1;jettySize=auto;html=1;exitX=1;exitY=0.75;exitDx=0;exitDy=0;entryX=1;entryY=0.5;entryDx=0;entryDy=0;" parent="1" source="rlBSqn4vm4IBlQh9q27B-281" target="rlBSqn4vm4IBlQh9q27B-285" edge="1">
          <mxGeometry relative="1" as="geometry">
            <Array as="points">
              <mxPoint x="1223" y="2140" />
              <mxPoint x="1270" y="2140" />
              <mxPoint x="1270" y="1529" />
            </Array>
          </mxGeometry>
        </mxCell>
        <mxCell id="rlBSqn4vm4IBlQh9q27B-287" style="edgeStyle=orthogonalEdgeStyle;rounded=0;orthogonalLoop=1;jettySize=auto;html=1;exitX=0;exitY=0.75;exitDx=0;exitDy=0;entryX=0.5;entryY=0;entryDx=0;entryDy=0;" parent="1" source="rlBSqn4vm4IBlQh9q27B-215" target="rlBSqn4vm4IBlQh9q27B-285" edge="1">
          <mxGeometry relative="1" as="geometry">
            <Array as="points">
              <mxPoint x="1270" y="1119" />
              <mxPoint x="1270" y="1480" />
              <mxPoint x="667" y="1480" />
            </Array>
          </mxGeometry>
        </mxCell>
        <mxCell id="rlBSqn4vm4IBlQh9q27B-292" style="edgeStyle=orthogonalEdgeStyle;rounded=0;orthogonalLoop=1;jettySize=auto;html=1;exitX=0.5;exitY=1;exitDx=0;exitDy=0;entryX=0;entryY=0.5;entryDx=0;entryDy=0;" parent="1" source="rlBSqn4vm4IBlQh9q27B-245" target="rlBSqn4vm4IBlQh9q27B-291" edge="1">
          <mxGeometry relative="1" as="geometry">
            <Array as="points">
              <mxPoint x="868" y="1790" />
              <mxPoint x="180" y="1790" />
              <mxPoint x="180" y="2179" />
            </Array>
          </mxGeometry>
        </mxCell>
        <mxCell id="rlBSqn4vm4IBlQh9q27B-295" style="edgeStyle=orthogonalEdgeStyle;rounded=0;orthogonalLoop=1;jettySize=auto;html=1;exitX=0.5;exitY=1;exitDx=0;exitDy=0;entryX=1;entryY=0.5;entryDx=0;entryDy=0;" parent="1" source="rlBSqn4vm4IBlQh9q27B-52" target="rlBSqn4vm4IBlQh9q27B-291" edge="1">
          <mxGeometry relative="1" as="geometry">
            <Array as="points">
              <mxPoint x="868" y="560" />
              <mxPoint x="490" y="560" />
              <mxPoint x="490" y="2179" />
            </Array>
          </mxGeometry>
        </mxCell>
        <mxCell id="XdoykPWAol43YMfYIbr1-37" style="edgeStyle=orthogonalEdgeStyle;rounded=0;orthogonalLoop=1;jettySize=auto;html=1;entryX=1;entryY=0.5;entryDx=0;entryDy=0;exitX=0;exitY=0.5;exitDx=0;exitDy=0;" parent="1" source="rlBSqn4vm4IBlQh9q27B-245" target="XdoykPWAol43YMfYIbr1-36" edge="1">
          <mxGeometry relative="1" as="geometry">
            <mxPoint x="760" y="1670" as="sourcePoint" />
          </mxGeometry>
        </mxCell>
        <mxCell id="XdoykPWAol43YMfYIbr1-41" style="edgeStyle=orthogonalEdgeStyle;rounded=0;orthogonalLoop=1;jettySize=auto;html=1;exitX=0.5;exitY=1;exitDx=0;exitDy=0;entryX=0.5;entryY=0;entryDx=0;entryDy=0;" parent="1" source="XdoykPWAol43YMfYIbr1-36" target="rlBSqn4vm4IBlQh9q27B-255" edge="1">
          <mxGeometry relative="1" as="geometry">
            <mxPoint x="338.5" y="1840" as="sourcePoint" />
          </mxGeometry>
        </mxCell>
      </root>
    </mxGraphModel>
  </diagram>
</mxfile>
